<svg xmlns="http://www.w3.org/2000/svg" width="180" height="60" viewBox="0 0 180 60"><g class="logo__figure" fill="#FF8700"><path d="M43.865 39.913c-.87.252-1.564.348-2.474.348-7.458 0-18.41-25.705-18.41-34.26 0-3.15.754-4.202 1.822-5.103C15.674 1.947 4.72 5.253 1.218 9.452.46 10.504 0 12.152 0 14.256c0 13.355 14.454 43.66 24.65 43.66 4.72 0 12.672-7.646 19.215-18.003M39.104 0c9.433 0 18.87 1.5 18.87 6.752 0 10.652-6.85 23.562-10.347 23.562-6.238 0-14-17.11-14-25.666C33.628.748 35.15 0 39.105 0"/></g><g class="logo__name"><path d="M80.038 24.273v33.534h-7.943V24.273h-8.348v-7.007h24.64v7.008h-8.35zM100.62 58.327c-2.842 0-7.653-.87-8.175-.984v-6.428c1.392.29 4.696.984 7.247.984 2.783 0 4.58-1.97 4.58-5.562 0-4.517-1.16-6.428-4.696-6.428H95.11v-6.312h3.886c3.304 0 4.638-2.027 4.638-5.502 0-3.302-1.16-4.923-4.058-4.923-2.55 0-5.16.638-6.84.985V17.73c.637-.116 4.637-.984 7.594-.984 7.42 0 11.015 2.665 11.015 11.525 0 3.476-1.16 7.066-4.348 8.167 3.19.636 5.044 3.59 5.044 9.324 0 9.73-4.987 12.567-11.42 12.567zM131.228 58.386c-4.116 0-10.957-.58-10.957-.58v-40.54s7.016-.58 10.263-.58c9.333 0 14.435 3.128 14.435 20.213 0 17.258-4.753 21.486-13.74 21.486zm.58-34.692c-2.145 0-3.594.232-3.594.232v27.22s1.102.23 3.536.23c3.595 0 5.16-2.953 5.16-14.073 0-12.45-1.624-13.61-5.102-13.61zM162.88 58.386c-4.115 0-10.956-.58-10.956-.58v-40.54s7.015-.58 10.26-.58c9.334 0 14.437 3.128 14.437 20.213 0 17.258-4.752 21.486-13.74 21.486zm.582-34.692c-2.145 0-3.594.232-3.594.232v27.22s1.102.23 3.536.23c3.595 0 5.16-2.953 5.16-14.073 0-12.45-1.624-13.61-5.102-13.61z"/></g></svg>
